{
	"asset":{
		"generator":"Khronos glTF Blender I/O v3.5.30",
		"version":"2.0"
	},
	"scene":0,
	"scenes":[
		{
			"extras":{
				"collider":true
			},
			"name":"Scene",
			"nodes":[
				0,
				1
			]
		}
	],
	"nodes":[
		{
			"mesh":0,
			"name":"Object_3",
			"rotation":[
				-0.70710688829422,
				0,
				0,
				0.7071066498756409
			],
			"scale":[
				0.03030303120613098,
				0.03030303306877613,
				0.03030303306877613
			]
		},
		{
			"mesh":1,
			"name":"collider_Object_3-colonly",
			"rotation":[
				-0.7071069478988647,
				0,
				0,
				0.7071066498756409
			],
			"scale":[
				0.029999999329447746,
				0.030000003054738045,
				0.030000003054738045
			]
		}
	],
	"materials":[
		{
			"doubleSided":true,
			"name":"Wood.001",
			"normalTexture":{
				"index":0
			},
			"pbrMetallicRoughness":{
				"baseColorTexture":{
					"index":1
				},
				"metallicFactor":0,
				"roughnessFactor":0.33000001311302185
			}
		}
	],
	"meshes":[
		{
			"name":"Object_0.001",
			"primitives":[
				{
					"attributes":{
						"POSITION":0,
						"TEXCOORD_0":1,
						"NORMAL":2
					},
					"indices":3,
					"material":0
				}
			]
		},
		{
			"name":"Object_3_colmesh.004",
			"primitives":[
				{
					"attributes":{
						"POSITION":4,
						"NORMAL":5
					},
					"indices":6
				}
			]
		}
	],
	"textures":[
		{
			"sampler":0,
			"source":0
		},
		{
			"sampler":0,
			"source":1
		}
	],
	"images":[
		{
			"bufferView":4,
			"mimeType":"image/jpeg",
			"name":"Image_1"
		},
		{
			"bufferView":5,
			"mimeType":"image/jpeg",
			"name":"Image_0"
		}
	],
	"accessors":[
		{
			"bufferView":0,
			"componentType":5126,
			"count":572,
			"max":[
				15.5,
				15.5,
				33
			],
			"min":[
				-15.5,
				-15.5,
				-1.9809448303931276e-07
			],
			"type":"VEC3"
		},
		{
			"bufferView":1,
			"componentType":5126,
			"count":572,
			"type":"VEC2"
		},
		{
			"bufferView":2,
			"componentType":5126,
			"count":572,
			"type":"VEC3"
		},
		{
			"bufferView":3,
			"componentType":5123,
			"count":2292,
			"type":"SCALAR"
		},
		{
			"bufferView":6,
			"componentType":5126,
			"count":24,
			"max":[
				15.5,
				15.5,
				33
			],
			"min":[
				-15.5,
				-15.5,
				-1.9809448303931276e-07
			],
			"type":"VEC3"
		},
		{
			"bufferView":7,
			"componentType":5126,
			"count":24,
			"type":"VEC3"
		},
		{
			"bufferView":8,
			"componentType":5123,
			"count":36,
			"type":"SCALAR"
		}
	],
	"bufferViews":[
		{
			"buffer":0,
			"byteLength":6864,
			"byteOffset":0,
			"target":34962
		},
		{
			"buffer":0,
			"byteLength":4576,
			"byteOffset":6864,
			"target":34962
		},
		{
			"buffer":0,
			"byteLength":6864,
			"byteOffset":11440,
			"target":34962
		},
		{
			"buffer":0,
			"byteLength":4584,
			"byteOffset":18304,
			"target":34963
		},
		{
			"buffer":0,
			"byteLength":61534,
			"byteOffset":22888
		},
		{
			"buffer":0,
			"byteLength":63085,
			"byteOffset":84424
		},
		{
			"buffer":0,
			"byteLength":288,
			"byteOffset":147512,
			"target":34962
		},
		{
			"buffer":0,
			"byteLength":288,
			"byteOffset":147800,
			"target":34962
		},
		{
			"buffer":0,
			"byteLength":72,
			"byteOffset":148088,
			"target":34963
		}
	],
	"samplers":[
		{
			"magFilter":9729,
			"minFilter":9987
		}
	],
	"buffers":[
		{
			"byteLength":148160,
			"uri":"data:application/octet-stream;base64,"
		}
	]
}
