{
	"asset":{
		"generator":"Khronos glTF Blender I/O v3.5.30",
		"version":"2.0"
	},
	"extensionsUsed":[
		"KHR_materials_unlit"
	],
	"scene":0,
	"scenes":[
		{
			"name":"Scene",
			"nodes":[
				4
			]
		}
	],
	"nodes":[
		{
			"mesh":0,
			"name":"Sword4_Sword_0",
			"translation":[
				0,
				-213.15719604492188,
				0
			]
		},
		{
			"children":[
				0
			],
			"name":"Sword4",
			"translation":[
				0,
				3.814697265625e-06,
				0
			]
		},
		{
			"children":[
				1
			],
			"name":"RootNode",
			"translation":[
				0,
				3.814697265625e-06,
				0
			]
		},
		{
			"children":[
				2
			],
			"name":"1942dabeed8e4a71ba2800f13e47cf20.fbx",
			"rotation":[
				1,
				0,
				0,
				0
			],
			"scale":[
				0.010000000707805157,
				0.010000000707805157,
				0.010000000707805157
			]
		},
		{
			"children":[
				3
			],
			"name":"Sketchfab_model",
			"rotation":[
				1,
				0,
				0,
				0
			],
			"scale":[
				0.20000000298023224,
				0.20000000298023224,
				0.20000000298023224
			],
			"translation":[
				0,
				-0.12427948415279388,
				0
			]
		}
	],
	"materials":[
		{
			"doubleSided":true,
			"extensions":{
				"KHR_materials_unlit":{}
			},
			"name":"Sword.001",
			"pbrMetallicRoughness":{
				"baseColorTexture":{
					"index":0,
					"texCoord":0
				},
				"metallicFactor":0,
				"roughnessFactor":0.9
			}
		}
	],
	"meshes":[
		{
			"name":"Sword4_Sword_0.001",
			"primitives":[
				{
					"attributes":{
						"POSITION":0,
						"TEXCOORD_0":1,
						"TEXCOORD_1":2,
						"NORMAL":3
					},
					"indices":4,
					"material":0
				}
			]
		}
	],
	"textures":[
		{
			"sampler":0,
			"source":0
		}
	],
	"images":[
		{
			"bufferView":5,
			"mimeType":"image/png",
			"name":"Image_0"
		}
	],
	"accessors":[
		{
			"bufferView":0,
			"componentType":5126,
			"count":1170,
			"max":[
				68.31413269042969,
				463.1638488769531,
				13.904300689697266
			],
			"min":[
				-62.745487213134766,
				-29.404172897338867,
				-14.086585998535156
			],
			"type":"VEC3"
		},
		{
			"bufferView":1,
			"componentType":5126,
			"count":1170,
			"type":"VEC2"
		},
		{
			"bufferView":2,
			"componentType":5126,
			"count":1170,
			"type":"VEC2"
		},
		{
			"bufferView":3,
			"componentType":5126,
			"count":1170,
			"type":"VEC3"
		},
		{
			"bufferView":4,
			"componentType":5123,
			"count":1998,
			"type":"SCALAR"
		}
	],
	"bufferViews":[
		{
			"buffer":0,
			"byteLength":14040,
			"byteOffset":0,
			"target":34962
		},
		{
			"buffer":0,
			"byteLength":9360,
			"byteOffset":14040,
			"target":34962
		},
		{
			"buffer":0,
			"byteLength":9360,
			"byteOffset":23400,
			"target":34962
		},
		{
			"buffer":0,
			"byteLength":14040,
			"byteOffset":32760,
			"target":34962
		},
		{
			"buffer":0,
			"byteLength":3996,
			"byteOffset":46800,
			"target":34963
		},
		{
			"buffer":0,
			"byteLength":898046,
			"byteOffset":50796
		}
	],
	"samplers":[
		{
			"magFilter":9729,
			"minFilter":9987
		}
	],
	"buffers":[
		{
			"byteLength":948844,
			"uri":"data:application/octet-stream;base64,"
		}
	]
}
