{
	"asset":{
		"generator":"Khronos glTF Blender I/O v3.5.30",
		"version":"2.0"
	},
	"scene":0,
	"scenes":[
		{
			"name":"Scene",
			"nodes":[
				0
			]
		}
	],
	"nodes":[
		{
			"mesh":0,
			"name":"body",
			"rotation":[
				0.7071068286895752,
				0,
				0,
				0.7071068286895752
			]
		}
	],
	"materials":[
		{
			"doubleSided":true,
			"name":"metalDark.001",
			"pbrMetallicRoughness":{
				"baseColorFactor":[
					0.6750620007514954,
					0.71002197265625,
					0.7735850214958191,
					1
				]
			}
		},
		{
			"doubleSided":true,
			"name":"metal.001",
			"pbrMetallicRoughness":{
				"baseColorFactor":[
					0.8431370258331299,
					0.8705880045890808,
					0.9098039865493774,
					1
				]
			}
		},
		{
			"doubleSided":true,
			"name":"metalRed.001",
			"pbrMetallicRoughness":{
				"baseColorFactor":[
					1,
					0.6285240054130554,
					0.2028300017118454,
					1
				]
			}
		},
		{
			"doubleSided":true,
			"name":"crystal.001",
			"pbrMetallicRoughness":{
				"baseColorFactor":[
					0.18623200058937073,
					0.8773580193519592,
					0.5934360027313232,
					1
				]
			}
		},
		{
			"doubleSided":true,
			"name":"dark.001",
			"pbrMetallicRoughness":{
				"baseColorFactor":[
					0.274509996175766,
					0.2980389893054962,
					0.34117600321769714,
					1
				]
			}
		}
	],
	"meshes":[
		{
			"name":"body_collider",
			"primitives":[
				{
					"attributes":{
						"POSITION":0,
						"TEXCOORD_0":1,
						"NORMAL":2
					},
					"indices":3,
					"material":0
				},
				{
					"attributes":{
						"POSITION":4,
						"TEXCOORD_0":5,
						"NORMAL":6
					},
					"indices":7,
					"material":1
				},
				{
					"attributes":{
						"POSITION":8,
						"TEXCOORD_0":9,
						"NORMAL":10
					},
					"indices":11,
					"material":2
				},
				{
					"attributes":{
						"POSITION":12,
						"TEXCOORD_0":13,
						"NORMAL":14
					},
					"indices":15,
					"material":3
				},
				{
					"attributes":{
						"POSITION":16,
						"TEXCOORD_0":17,
						"NORMAL":18
					},
					"indices":19,
					"material":4
				}
			]
		}
	],
	"accessors":[
		{
			"bufferView":0,
			"componentType":5126,
			"count":100,
			"max":[
				0.12999999523162842,
				0.20000000298023224,
				0.17062599956989288
			],
			"min":[
				-0.12999999523162842,
				-0.12999999523162842,
				-0.23372399806976318
			],
			"type":"VEC3"
		},
		{
			"bufferView":1,
			"componentType":5126,
			"count":100,
			"type":"VEC2"
		},
		{
			"bufferView":2,
			"componentType":5126,
			"count":100,
			"type":"VEC3"
		},
		{
			"bufferView":3,
			"componentType":5123,
			"count":144,
			"type":"SCALAR"
		},
		{
			"bufferView":4,
			"componentType":5126,
			"count":89,
			"max":[
				0.24159200489521027,
				0.20000000298023224,
				0.2994599938392639
			],
			"min":[
				-0.24159200489521027,
				-0.12999999523162842,
				-0.3265190124511719
			],
			"type":"VEC3"
		},
		{
			"bufferView":5,
			"componentType":5126,
			"count":89,
			"type":"VEC2"
		},
		{
			"bufferView":6,
			"componentType":5126,
			"count":89,
			"type":"VEC3"
		},
		{
			"bufferView":7,
			"componentType":5123,
			"count":114,
			"type":"SCALAR"
		},
		{
			"bufferView":8,
			"componentType":5126,
			"count":95,
			"max":[
				0.24159200489521027,
				0.10000000149011612,
				0.0152580002322793
			],
			"min":[
				-0.24159200489521027,
				-0.12999999523162842,
				-0.18372400104999542
			],
			"type":"VEC3"
		},
		{
			"bufferView":9,
			"componentType":5126,
			"count":95,
			"type":"VEC2"
		},
		{
			"bufferView":10,
			"componentType":5126,
			"count":95,
			"type":"VEC3"
		},
		{
			"bufferView":11,
			"componentType":5123,
			"count":126,
			"type":"SCALAR"
		},
		{
			"bufferView":12,
			"componentType":5126,
			"count":252,
			"max":[
				0.24159200489521027,
				0.12999999523162842,
				0.16259300708770752
			],
			"min":[
				-0.24159200489521027,
				-0.12999999523162842,
				-0.543724000453949
			],
			"type":"VEC3"
		},
		{
			"bufferView":13,
			"componentType":5126,
			"count":252,
			"type":"VEC2"
		},
		{
			"bufferView":14,
			"componentType":5126,
			"count":252,
			"type":"VEC3"
		},
		{
			"bufferView":15,
			"componentType":5123,
			"count":366,
			"type":"SCALAR"
		},
		{
			"bufferView":16,
			"componentType":5126,
			"count":101,
			"max":[
				0.12999999523162842,
				0.07579600065946579,
				0.2994599938392639
			],
			"min":[
				-0.12999999523162842,
				-0.12999999523162842,
				-0.23886600136756897
			],
			"type":"VEC3"
		},
		{
			"bufferView":17,
			"componentType":5126,
			"count":101,
			"type":"VEC2"
		},
		{
			"bufferView":18,
			"componentType":5126,
			"count":101,
			"type":"VEC3"
		},
		{
			"bufferView":19,
			"componentType":5123,
			"count":126,
			"type":"SCALAR"
		}
	],
	"bufferViews":[
		{
			"buffer":0,
			"byteLength":1200,
			"byteOffset":0,
			"target":34962
		},
		{
			"buffer":0,
			"byteLength":800,
			"byteOffset":1200,
			"target":34962
		},
		{
			"buffer":0,
			"byteLength":1200,
			"byteOffset":2000,
			"target":34962
		},
		{
			"buffer":0,
			"byteLength":288,
			"byteOffset":3200,
			"target":34963
		},
		{
			"buffer":0,
			"byteLength":1068,
			"byteOffset":3488,
			"target":34962
		},
		{
			"buffer":0,
			"byteLength":712,
			"byteOffset":4556,
			"target":34962
		},
		{
			"buffer":0,
			"byteLength":1068,
			"byteOffset":5268,
			"target":34962
		},
		{
			"buffer":0,
			"byteLength":228,
			"byteOffset":6336,
			"target":34963
		},
		{
			"buffer":0,
			"byteLength":1140,
			"byteOffset":6564,
			"target":34962
		},
		{
			"buffer":0,
			"byteLength":760,
			"byteOffset":7704,
			"target":34962
		},
		{
			"buffer":0,
			"byteLength":1140,
			"byteOffset":8464,
			"target":34962
		},
		{
			"buffer":0,
			"byteLength":252,
			"byteOffset":9604,
			"target":34963
		},
		{
			"buffer":0,
			"byteLength":3024,
			"byteOffset":9856,
			"target":34962
		},
		{
			"buffer":0,
			"byteLength":2016,
			"byteOffset":12880,
			"target":34962
		},
		{
			"buffer":0,
			"byteLength":3024,
			"byteOffset":14896,
			"target":34962
		},
		{
			"buffer":0,
			"byteLength":732,
			"byteOffset":17920,
			"target":34963
		},
		{
			"buffer":0,
			"byteLength":1212,
			"byteOffset":18652,
			"target":34962
		},
		{
			"buffer":0,
			"byteLength":808,
			"byteOffset":19864,
			"target":34962
		},
		{
			"buffer":0,
			"byteLength":1212,
			"byteOffset":20672,
			"target":34962
		},
		{
			"buffer":0,
			"byteLength":252,
			"byteOffset":21884,
			"target":34963
		}
	],
	"buffers":[
		{
			"byteLength":22136,
			"uri":"data:application/octet-stream;base64,"
		}
	]
}
