{
	"asset":{
		"generator":"Khronos glTF Blender I/O v3.5.30",
		"version":"2.0"
	},
	"scene":0,
	"scenes":[
		{
			"name":"Scene",
			"nodes":[
				11,
				12,
				13,
				14
			]
		}
	],
	"nodes":[
		{
			"mesh":0,
			"name":"crystal"
		},
		{
			"mesh":1,
			"name":"grass"
		},
		{
			"mesh":2,
			"name":"ground"
		},
		{
			"mesh":3,
			"name":"Object_10"
		},
		{
			"mesh":4,
			"name":"Object_8"
		},
		{
			"mesh":5,
			"name":"Object_9"
		},
		{
			"mesh":6,
			"name":"platform"
		},
		{
			"mesh":7,
			"name":"Stones"
		},
		{
			"mesh":8,
			"name":"trees"
		},
		{
			"mesh":9,
			"name":"walls"
		},
		{
			"children":[
				0,
				1,
				2,
				3,
				4,
				5,
				6,
				7,
				8,
				9
			],
			"name":"Game_Level_Scene_Low_Poly.obj.cleaner.materialmerger.gles"
		},
		{
			"children":[
				10
			],
			"name":"Sketchfab_model",
			"rotation":[
				-0.70710688829422,
				0,
				0,
				0.7071066498756409
			]
		},
		{
			"mesh":10,
			"name":"collider_ground",
			"rotation":[
				-0.70710688829422,
				0,
				0,
				0.7071066498756409
			]
		},
		{
			"mesh":11,
			"name":"collider_grass-colonly",
			"rotation":[
				-0.70710688829422,
				0,
				0,
				0.7071066498756409
			]
		},
		{
			"mesh":12,
			"name":"collider_walls-colonly",
			"rotation":[
				-0.70710688829422,
				0,
				0,
				0.7071066498756409
			]
		}
	],
	"materials":[
		{
			"doubleSided":true,
			"emissiveFactor":[
				0.013056846335530281,
				0.581821620464325,
				1
			],
			"name":"Crystal_glowing",
			"pbrMetallicRoughness":{
				"baseColorFactor":[
					0.0019548358395695686,
					0.45581457018852234,
					0.8928292989730835,
					1
				],
				"metallicFactor":0,
				"roughnessFactor":0.8745926022529602
			}
		},
		{
			"doubleSided":true,
			"name":"grass",
			"pbrMetallicRoughness":{
				"baseColorFactor":[
					0,
					0.3959999978542328,
					0.04309999942779541,
					1
				],
				"metallicFactor":0,
				"roughnessFactor":0.989471971988678
			}
		},
		{
			"doubleSided":true,
			"name":"stylized_walkway",
			"pbrMetallicRoughness":{
				"baseColorFactor":[
					0.6195999979972839,
					0.4000000059604645,
					0.28619998693466187,
					1
				],
				"metallicFactor":0,
				"roughnessFactor":0.9696940779685974
			}
		},
		{
			"doubleSided":true,
			"name":"treeleaves",
			"pbrMetallicRoughness":{
				"baseColorFactor":[
					0.07840000092983246,
					0.4235000014305115,
					0.10189999639987946,
					1
				],
				"metallicFactor":0
			}
		},
		{
			"doubleSided":true,
			"name":"Portal_crystal",
			"pbrMetallicRoughness":{
				"baseColorFactor":[
					0.2745000123977661,
					0.2822999954223633,
					0.36469998955726624,
					1
				],
				"metallicFactor":0
			}
		},
		{
			"doubleSided":true,
			"name":"rock",
			"pbrMetallicRoughness":{
				"baseColorFactor":[
					0.40389999747276306,
					0.26269999146461487,
					0.1881999969482422,
					1
				],
				"metallicFactor":0
			}
		},
		{
			"doubleSided":true,
			"name":"treestump",
			"pbrMetallicRoughness":{
				"baseColorFactor":[
					0.4823000133037567,
					0.30979999899864197,
					0.21960000693798065,
					1
				],
				"metallicFactor":0
			}
		},
		{
			"doubleSided":true,
			"name":"bigrock",
			"pbrMetallicRoughness":{
				"baseColorFactor":[
					0.5960000157356262,
					0.3057999908924103,
					0.19599999487400055,
					1
				],
				"metallicFactor":0
			}
		}
	],
	"meshes":[
		{
			"name":"Object_0",
			"primitives":[
				{
					"attributes":{
						"POSITION":0,
						"TEXCOORD_0":1,
						"NORMAL":2
					},
					"indices":3,
					"material":0
				}
			]
		},
		{
			"name":"Object_3",
			"primitives":[
				{
					"attributes":{
						"POSITION":4,
						"TEXCOORD_0":5,
						"NORMAL":6
					},
					"indices":7,
					"material":1
				}
			]
		},
		{
			"name":"Object_5",
			"primitives":[
				{
					"attributes":{
						"POSITION":8,
						"TEXCOORD_0":9,
						"NORMAL":10
					},
					"indices":11,
					"material":2
				}
			]
		},
		{
			"name":"Object_8",
			"primitives":[
				{
					"attributes":{
						"POSITION":12,
						"TEXCOORD_0":13,
						"NORMAL":14
					},
					"indices":15,
					"material":3
				}
			]
		},
		{
			"name":"Object_6",
			"primitives":[
				{
					"attributes":{
						"POSITION":16,
						"TEXCOORD_0":17,
						"NORMAL":18
					},
					"indices":19,
					"material":3
				}
			]
		},
		{
			"name":"Object_7",
			"primitives":[
				{
					"attributes":{
						"POSITION":20,
						"TEXCOORD_0":21,
						"NORMAL":22
					},
					"indices":23,
					"material":3
				}
			]
		},
		{
			"name":"Object_1",
			"primitives":[
				{
					"attributes":{
						"POSITION":24,
						"TEXCOORD_0":25,
						"NORMAL":26
					},
					"indices":27,
					"material":4
				}
			]
		},
		{
			"name":"Object_4",
			"primitives":[
				{
					"attributes":{
						"POSITION":28,
						"TEXCOORD_0":29,
						"NORMAL":30
					},
					"indices":31,
					"material":5
				}
			]
		},
		{
			"name":"Object_9",
			"primitives":[
				{
					"attributes":{
						"POSITION":32,
						"TEXCOORD_0":33,
						"NORMAL":34
					},
					"indices":35,
					"material":6
				}
			]
		},
		{
			"name":"Object_2",
			"primitives":[
				{
					"attributes":{
						"POSITION":36,
						"TEXCOORD_0":37,
						"NORMAL":38
					},
					"indices":39,
					"material":7
				}
			]
		},
		{
			"name":"Object_5.002",
			"primitives":[
				{
					"attributes":{
						"POSITION":40,
						"TEXCOORD_0":41,
						"NORMAL":42
					},
					"indices":11,
					"material":2
				}
			]
		},
		{
			"name":"Object_3.002",
			"primitives":[
				{
					"attributes":{
						"POSITION":43,
						"TEXCOORD_0":44,
						"NORMAL":45
					},
					"indices":7,
					"material":1
				}
			]
		},
		{
			"name":"Object_2.002",
			"primitives":[
				{
					"attributes":{
						"POSITION":46,
						"TEXCOORD_0":47,
						"NORMAL":48
					},
					"indices":39,
					"material":7
				}
			]
		}
	],
	"accessors":[
		{
			"bufferView":0,
			"componentType":5126,
			"count":128,
			"max":[
				8.675429344177246,
				3.5279009342193604,
				2.526324987411499
			],
			"min":[
				7.503955841064453,
				2.425337076187134,
				0.4860149919986725
			],
			"type":"VEC3"
		},
		{
			"bufferView":1,
			"componentType":5126,
			"count":128,
			"type":"VEC2"
		},
		{
			"bufferView":2,
			"componentType":5126,
			"count":128,
			"type":"VEC3"
		},
		{
			"bufferView":3,
			"componentType":5123,
			"count":168,
			"type":"SCALAR"
		},
		{
			"bufferView":4,
			"componentType":5126,
			"count":836,
			"max":[
				11.535534858703613,
				6.4350810050964355,
				0.44423699378967285
			],
			"min":[
				-1.7764029502868652,
				-12.417994499206543,
				-0.002750999992713332
			],
			"type":"VEC3"
		},
		{
			"bufferView":5,
			"componentType":5126,
			"count":836,
			"type":"VEC2"
		},
		{
			"bufferView":6,
			"componentType":5126,
			"count":836,
			"type":"VEC3"
		},
		{
			"bufferView":7,
			"componentType":5123,
			"count":3420,
			"type":"SCALAR"
		},
		{
			"bufferView":8,
			"componentType":5126,
			"count":270,
			"max":[
				11.472887992858887,
				5.27288818359375,
				0.01567699946463108
			],
			"min":[
				-0.9456759691238403,
				-12.325679779052734,
				-0.043418001383543015
			],
			"type":"VEC3"
		},
		{
			"bufferView":9,
			"componentType":5126,
			"count":270,
			"type":"VEC2"
		},
		{
			"bufferView":10,
			"componentType":5126,
			"count":270,
			"type":"VEC3"
		},
		{
			"bufferView":11,
			"componentType":5123,
			"count":900,
			"type":"SCALAR"
		},
		{
			"bufferView":12,
			"componentType":5126,
			"count":142,
			"max":[
				11.263954162597656,
				4.943536758422852,
				2.623755931854248
			],
			"min":[
				-1.3191969394683838,
				-4.699070930480957,
				0.6412299871444702
			],
			"type":"VEC3"
		},
		{
			"bufferView":13,
			"componentType":5126,
			"count":142,
			"type":"VEC2"
		},
		{
			"bufferView":14,
			"componentType":5126,
			"count":142,
			"type":"VEC3"
		},
		{
			"bufferView":15,
			"componentType":5123,
			"count":288,
			"type":"SCALAR"
		},
		{
			"bufferView":16,
			"componentType":5126,
			"count":9691,
			"max":[
				11.427632331848145,
				6.106249809265137,
				3.8099000453948975
			],
			"min":[
				-1.8686729669570923,
				-12.32298755645752,
				0.38040798902511597
			],
			"type":"VEC3"
		},
		{
			"bufferView":17,
			"componentType":5126,
			"count":9691,
			"type":"VEC2"
		},
		{
			"bufferView":18,
			"componentType":5126,
			"count":9691,
			"type":"VEC3"
		},
		{
			"bufferView":19,
			"componentType":5123,
			"count":16254,
			"type":"SCALAR"
		},
		{
			"bufferView":20,
			"componentType":5126,
			"count":8421,
			"max":[
				11.427632331848145,
				6.045554161071777,
				3.384584903717041
			],
			"min":[
				-1.8735649585723877,
				-12.390436172485352,
				0.38040798902511597
			],
			"type":"VEC3"
		},
		{
			"bufferView":21,
			"componentType":5126,
			"count":8421,
			"type":"VEC2"
		},
		{
			"bufferView":22,
			"componentType":5126,
			"count":8421,
			"type":"VEC3"
		},
		{
			"bufferView":23,
			"componentType":5123,
			"count":17478,
			"type":"SCALAR"
		},
		{
			"bufferView":24,
			"componentType":5126,
			"count":1282,
			"max":[
				9.737693786621094,
				4.633633136749268,
				0.36407798528671265
			],
			"min":[
				6.461986064910889,
				1.3572709560394287,
				-0.05043099820613861
			],
			"type":"VEC3"
		},
		{
			"bufferView":25,
			"componentType":5126,
			"count":1282,
			"type":"VEC2"
		},
		{
			"bufferView":26,
			"componentType":5126,
			"count":1282,
			"type":"VEC3"
		},
		{
			"bufferView":27,
			"componentType":5123,
			"count":1968,
			"type":"SCALAR"
		},
		{
			"bufferView":28,
			"componentType":5126,
			"count":4942,
			"max":[
				10.722513198852539,
				5.696484088897705,
				0.7651280164718628
			],
			"min":[
				-1.386023998260498,
				-12.414523124694824,
				-0.08848199993371964
			],
			"type":"VEC3"
		},
		{
			"bufferView":29,
			"componentType":5126,
			"count":4942,
			"type":"VEC2"
		},
		{
			"bufferView":30,
			"componentType":5126,
			"count":4942,
			"type":"VEC3"
		},
		{
			"bufferView":31,
			"componentType":5123,
			"count":7314,
			"type":"SCALAR"
		},
		{
			"bufferView":32,
			"componentType":5126,
			"count":4023,
			"max":[
				10.961609840393066,
				5.703506946563721,
				2.61523699760437
			],
			"min":[
				-1.4172379970550537,
				-12.048383712768555,
				-0.12503500282764435
			],
			"type":"VEC3"
		},
		{
			"bufferView":33,
			"componentType":5126,
			"count":4023,
			"type":"VEC2"
		},
		{
			"bufferView":34,
			"componentType":5126,
			"count":4023,
			"type":"VEC3"
		},
		{
			"bufferView":35,
			"componentType":5123,
			"count":9288,
			"type":"SCALAR"
		},
		{
			"bufferView":36,
			"componentType":5126,
			"count":2040,
			"max":[
				14.133831024169922,
				8.157548904418945,
				2.9916329383850098
			],
			"min":[
				-4.356206893920898,
				-12.417993545532227,
				-0.6062110066413879
			],
			"type":"VEC3"
		},
		{
			"bufferView":37,
			"componentType":5126,
			"count":2040,
			"type":"VEC2"
		},
		{
			"bufferView":38,
			"componentType":5126,
			"count":2040,
			"type":"VEC3"
		},
		{
			"bufferView":39,
			"componentType":5123,
			"count":3060,
			"type":"SCALAR"
		},
		{
			"bufferView":40,
			"componentType":5126,
			"count":270,
			"max":[
				11.472887992858887,
				5.27288818359375,
				0.01567699946463108
			],
			"min":[
				-0.9456759691238403,
				-12.325679779052734,
				-0.043418001383543015
			],
			"type":"VEC3"
		},
		{
			"bufferView":41,
			"componentType":5126,
			"count":270,
			"type":"VEC2"
		},
		{
			"bufferView":42,
			"componentType":5126,
			"count":270,
			"type":"VEC3"
		},
		{
			"bufferView":43,
			"componentType":5126,
			"count":836,
			"max":[
				11.535534858703613,
				6.4350810050964355,
				0.44423699378967285
			],
			"min":[
				-1.7764029502868652,
				-12.417994499206543,
				-0.002750999992713332
			],
			"type":"VEC3"
		},
		{
			"bufferView":44,
			"componentType":5126,
			"count":836,
			"type":"VEC2"
		},
		{
			"bufferView":45,
			"componentType":5126,
			"count":836,
			"type":"VEC3"
		},
		{
			"bufferView":46,
			"componentType":5126,
			"count":2040,
			"max":[
				14.133831024169922,
				8.157548904418945,
				2.9916329383850098
			],
			"min":[
				-4.356206893920898,
				-12.417993545532227,
				-0.6062110066413879
			],
			"type":"VEC3"
		},
		{
			"bufferView":47,
			"componentType":5126,
			"count":2040,
			"type":"VEC2"
		},
		{
			"bufferView":48,
			"componentType":5126,
			"count":2040,
			"type":"VEC3"
		}
	],
	"bufferViews":[
		{
			"buffer":0,
			"byteLength":1536,
			"byteOffset":0,
			"target":34962
		},
		{
			"buffer":0,
			"byteLength":1024,
			"byteOffset":1536,
			"target":34962
		},
		{
			"buffer":0,
			"byteLength":1536,
			"byteOffset":2560,
			"target":34962
		},
		{
			"buffer":0,
			"byteLength":336,
			"byteOffset":4096,
			"target":34963
		},
		{
			"buffer":0,
			"byteLength":10032,
			"byteOffset":4432,
			"target":34962
		},
		{
			"buffer":0,
			"byteLength":6688,
			"byteOffset":14464,
			"target":34962
		},
		{
			"buffer":0,
			"byteLength":10032,
			"byteOffset":21152,
			"target":34962
		},
		{
			"buffer":0,
			"byteLength":6840,
			"byteOffset":31184,
			"target":34963
		},
		{
			"buffer":0,
			"byteLength":3240,
			"byteOffset":38024,
			"target":34962
		},
		{
			"buffer":0,
			"byteLength":2160,
			"byteOffset":41264,
			"target":34962
		},
		{
			"buffer":0,
			"byteLength":3240,
			"byteOffset":43424,
			"target":34962
		},
		{
			"buffer":0,
			"byteLength":1800,
			"byteOffset":46664,
			"target":34963
		},
		{
			"buffer":0,
			"byteLength":1704,
			"byteOffset":48464,
			"target":34962
		},
		{
			"buffer":0,
			"byteLength":1136,
			"byteOffset":50168,
			"target":34962
		},
		{
			"buffer":0,
			"byteLength":1704,
			"byteOffset":51304,
			"target":34962
		},
		{
			"buffer":0,
			"byteLength":576,
			"byteOffset":53008,
			"target":34963
		},
		{
			"buffer":0,
			"byteLength":116292,
			"byteOffset":53584,
			"target":34962
		},
		{
			"buffer":0,
			"byteLength":77528,
			"byteOffset":169876,
			"target":34962
		},
		{
			"buffer":0,
			"byteLength":116292,
			"byteOffset":247404,
			"target":34962
		},
		{
			"buffer":0,
			"byteLength":32508,
			"byteOffset":363696,
			"target":34963
		},
		{
			"buffer":0,
			"byteLength":101052,
			"byteOffset":396204,
			"target":34962
		},
		{
			"buffer":0,
			"byteLength":67368,
			"byteOffset":497256,
			"target":34962
		},
		{
			"buffer":0,
			"byteLength":101052,
			"byteOffset":564624,
			"target":34962
		},
		{
			"buffer":0,
			"byteLength":34956,
			"byteOffset":665676,
			"target":34963
		},
		{
			"buffer":0,
			"byteLength":15384,
			"byteOffset":700632,
			"target":34962
		},
		{
			"buffer":0,
			"byteLength":10256,
			"byteOffset":716016,
			"target":34962
		},
		{
			"buffer":0,
			"byteLength":15384,
			"byteOffset":726272,
			"target":34962
		},
		{
			"buffer":0,
			"byteLength":3936,
			"byteOffset":741656,
			"target":34963
		},
		{
			"buffer":0,
			"byteLength":59304,
			"byteOffset":745592,
			"target":34962
		},
		{
			"buffer":0,
			"byteLength":39536,
			"byteOffset":804896,
			"target":34962
		},
		{
			"buffer":0,
			"byteLength":59304,
			"byteOffset":844432,
			"target":34962
		},
		{
			"buffer":0,
			"byteLength":14628,
			"byteOffset":903736,
			"target":34963
		},
		{
			"buffer":0,
			"byteLength":48276,
			"byteOffset":918364,
			"target":34962
		},
		{
			"buffer":0,
			"byteLength":32184,
			"byteOffset":966640,
			"target":34962
		},
		{
			"buffer":0,
			"byteLength":48276,
			"byteOffset":998824,
			"target":34962
		},
		{
			"buffer":0,
			"byteLength":18576,
			"byteOffset":1047100,
			"target":34963
		},
		{
			"buffer":0,
			"byteLength":24480,
			"byteOffset":1065676,
			"target":34962
		},
		{
			"buffer":0,
			"byteLength":16320,
			"byteOffset":1090156,
			"target":34962
		},
		{
			"buffer":0,
			"byteLength":24480,
			"byteOffset":1106476,
			"target":34962
		},
		{
			"buffer":0,
			"byteLength":6120,
			"byteOffset":1130956,
			"target":34963
		},
		{
			"buffer":0,
			"byteLength":3240,
			"byteOffset":1137076,
			"target":34962
		},
		{
			"buffer":0,
			"byteLength":2160,
			"byteOffset":1140316,
			"target":34962
		},
		{
			"buffer":0,
			"byteLength":3240,
			"byteOffset":1142476,
			"target":34962
		},
		{
			"buffer":0,
			"byteLength":10032,
			"byteOffset":1145716,
			"target":34962
		},
		{
			"buffer":0,
			"byteLength":6688,
			"byteOffset":1155748,
			"target":34962
		},
		{
			"buffer":0,
			"byteLength":10032,
			"byteOffset":1162436,
			"target":34962
		},
		{
			"buffer":0,
			"byteLength":24480,
			"byteOffset":1172468,
			"target":34962
		},
		{
			"buffer":0,
			"byteLength":16320,
			"byteOffset":1196948,
			"target":34962
		},
		{
			"buffer":0,
			"byteLength":24480,
			"byteOffset":1213268,
			"target":34962
		}
	],
	"buffers":[
		{
			"byteLength":1237748,
			"uri":"data:application/octet-stream;base64,"
		}
	]
}
