{
	"asset":{
		"generator":"Khronos glTF Blender I/O v3.5.30",
		"version":"2.0"
	},
	"scene":0,
	"scenes":[
		{
			"name":"Scene",
			"nodes":[
				11
			]
		}
	],
	"nodes":[
		{
			"mesh":0,
			"name":"ground_top"
		},
		{
			"mesh":1,
			"name":"Object_10"
		},
		{
			"mesh":2,
			"name":"Object_11"
		},
		{
			"mesh":3,
			"name":"Object_2"
		},
		{
			"mesh":4,
			"name":"Object_3"
		},
		{
			"mesh":5,
			"name":"Object_4"
		},
		{
			"mesh":6,
			"name":"Object_5"
		},
		{
			"mesh":7,
			"name":"Object_6"
		},
		{
			"mesh":8,
			"name":"Object_8"
		},
		{
			"mesh":9,
			"name":"Object_9"
		},
		{
			"children":[
				0,
				1,
				2,
				3,
				4,
				5,
				6,
				7,
				8,
				9
			],
			"name":"Isometric_Game_Level_Low_Poly.obj.cleaner.materialmerger.gles",
			"rotation":[
				1,
				0,
				0,
				0
			]
		},
		{
			"children":[
				10
			],
			"name":"Sketchfab_model",
			"rotation":[
				1,
				0,
				0,
				0
			]
		}
	],
	"materials":[
		{
			"doubleSided":true,
			"name":"Lush_grass.001",
			"pbrMetallicRoughness":{
				"baseColorFactor":[
					0.5058000087738037,
					0.733299970626831,
					0.21170000731945038,
					1
				],
				"metallicFactor":0
			}
		},
		{
			"doubleSided":true,
			"name":"Stump_tree.001",
			"pbrMetallicRoughness":{
				"baseColorFactor":[
					0.3411000072956085,
					0.2822999954223633,
					0.227400004863739,
					1
				],
				"metallicFactor":0
			}
		},
		{
			"doubleSided":true,
			"name":"Veins.001",
			"pbrMetallicRoughness":{
				"baseColorFactor":[
					0.23919999599456787,
					0.3959999978542328,
					0.11760000139474869,
					1
				],
				"metallicFactor":0
			}
		},
		{
			"doubleSided":true,
			"name":"Castle_blocks.001",
			"pbrMetallicRoughness":{
				"baseColorFactor":[
					0.43130001425743103,
					0.35679998993873596,
					0.28619998693466187,
					1
				],
				"metallicFactor":0
			}
		},
		{
			"doubleSided":true,
			"name":"Castle_n_pillar.001",
			"pbrMetallicRoughness":{
				"baseColorFactor":[
					0.5450000166893005,
					0.44699999690055847,
					0.36070001125335693,
					1
				],
				"metallicFactor":0
			}
		},
		{
			"doubleSided":true,
			"name":"Grass_1.001",
			"pbrMetallicRoughness":{
				"baseColorFactor":[
					0.31369999051094055,
					0.49799999594688416,
					0.1606999933719635,
					1
				],
				"metallicFactor":0
			}
		},
		{
			"doubleSided":true,
			"name":"Ground.001",
			"pbrMetallicRoughness":{
				"baseColorFactor":[
					0.7803000211715698,
					0.635200023651123,
					0.513700008392334,
					1
				],
				"metallicFactor":0
			}
		},
		{
			"doubleSided":true,
			"name":"Pine_tree.001",
			"pbrMetallicRoughness":{
				"baseColorFactor":[
					0.1881999969482422,
					0.2980000078678131,
					0.09799999743700027,
					1
				],
				"metallicFactor":0
			}
		},
		{
			"doubleSided":true,
			"name":"Stones.001",
			"pbrMetallicRoughness":{
				"baseColorFactor":[
					0.3490000069141388,
					0.3176000118255615,
					0.29409998655319214,
					1
				],
				"metallicFactor":0
			}
		}
	],
	"meshes":[
		{
			"name":"Object_5",
			"primitives":[
				{
					"attributes":{
						"POSITION":0,
						"TEXCOORD_0":1,
						"NORMAL":2
					},
					"indices":3,
					"material":0
				}
			]
		},
		{
			"name":"Object_8.001",
			"primitives":[
				{
					"attributes":{
						"POSITION":4,
						"TEXCOORD_0":5,
						"NORMAL":6
					},
					"indices":7,
					"material":1
				}
			]
		},
		{
			"name":"Object_9.001",
			"primitives":[
				{
					"attributes":{
						"POSITION":8,
						"TEXCOORD_0":9,
						"NORMAL":10
					},
					"indices":11,
					"material":2
				}
			]
		},
		{
			"name":"Object_0.001",
			"primitives":[
				{
					"attributes":{
						"POSITION":12,
						"TEXCOORD_0":13,
						"NORMAL":14
					},
					"indices":15,
					"material":3
				}
			]
		},
		{
			"name":"Object_1.001",
			"primitives":[
				{
					"attributes":{
						"POSITION":16,
						"TEXCOORD_0":17,
						"NORMAL":18
					},
					"indices":19,
					"material":4
				}
			]
		},
		{
			"name":"Object_2.001",
			"primitives":[
				{
					"attributes":{
						"POSITION":20,
						"TEXCOORD_0":21,
						"NORMAL":22
					},
					"indices":23,
					"material":5
				}
			]
		},
		{
			"name":"Object_3.001",
			"primitives":[
				{
					"attributes":{
						"POSITION":24,
						"TEXCOORD_0":25,
						"NORMAL":26
					},
					"indices":27,
					"material":5
				}
			]
		},
		{
			"name":"Object_4.001",
			"primitives":[
				{
					"attributes":{
						"POSITION":28,
						"TEXCOORD_0":29,
						"NORMAL":30
					},
					"indices":31,
					"material":6
				}
			]
		},
		{
			"name":"Object_6.001",
			"primitives":[
				{
					"attributes":{
						"POSITION":32,
						"TEXCOORD_0":33,
						"NORMAL":34
					},
					"indices":35,
					"material":7
				}
			]
		},
		{
			"name":"Object_7.001",
			"primitives":[
				{
					"attributes":{
						"POSITION":36,
						"TEXCOORD_0":37,
						"NORMAL":38
					},
					"indices":39,
					"material":8
				}
			]
		}
	],
	"accessors":[
		{
			"bufferView":0,
			"componentType":5126,
			"count":92,
			"max":[
				23.4239559173584,
				21.987327575683594,
				1.2499990463256836
			],
			"min":[
				-20.923954010009766,
				-40.59287643432617,
				1.2499990463256836
			],
			"type":"VEC3"
		},
		{
			"bufferView":1,
			"componentType":5126,
			"count":92,
			"type":"VEC2"
		},
		{
			"bufferView":2,
			"componentType":5126,
			"count":92,
			"type":"VEC3"
		},
		{
			"bufferView":3,
			"componentType":5123,
			"count":138,
			"type":"SCALAR"
		},
		{
			"bufferView":4,
			"componentType":5126,
			"count":672,
			"max":[
				20.608959197998047,
				20.801231384277344,
				10.928979873657227
			],
			"min":[
				-18.610689163208008,
				-9.012398719787598,
				0.7108240127563477
			],
			"type":"VEC3"
		},
		{
			"bufferView":5,
			"componentType":5126,
			"count":672,
			"type":"VEC2"
		},
		{
			"bufferView":6,
			"componentType":5126,
			"count":672,
			"type":"VEC3"
		},
		{
			"bufferView":7,
			"componentType":5123,
			"count":1008,
			"type":"SCALAR"
		},
		{
			"bufferView":8,
			"componentType":5126,
			"count":2652,
			"max":[
				11.904123306274414,
				11.905436515808105,
				11.911849021911621
			],
			"min":[
				-11.67254638671875,
				-11.77319049835205,
				-1.694828987121582
			],
			"type":"VEC3"
		},
		{
			"bufferView":9,
			"componentType":5126,
			"count":2652,
			"type":"VEC2"
		},
		{
			"bufferView":10,
			"componentType":5126,
			"count":2652,
			"type":"VEC3"
		},
		{
			"bufferView":11,
			"componentType":5123,
			"count":5220,
			"type":"SCALAR"
		},
		{
			"bufferView":12,
			"componentType":5126,
			"count":1032,
			"max":[
				2.3711659908294678,
				2.3211638927459717,
				11.794547080993652
			],
			"min":[
				-2.421164035797119,
				-2.3711650371551514,
				3.305453062057495
			],
			"type":"VEC3"
		},
		{
			"bufferView":13,
			"componentType":5126,
			"count":1032,
			"type":"VEC2"
		},
		{
			"bufferView":14,
			"componentType":5126,
			"count":1032,
			"type":"VEC3"
		},
		{
			"bufferView":15,
			"componentType":5123,
			"count":1548,
			"type":"SCALAR"
		},
		{
			"bufferView":16,
			"componentType":5126,
			"count":1263,
			"max":[
				11.557320594787598,
				11.55732250213623,
				14.04964828491211
			],
			"min":[
				-11.307324409484863,
				-11.557312965393066,
				1.1788009405136108
			],
			"type":"VEC3"
		},
		{
			"bufferView":17,
			"componentType":5126,
			"count":1263,
			"type":"VEC2"
		},
		{
			"bufferView":18,
			"componentType":5126,
			"count":1263,
			"type":"VEC3"
		},
		{
			"bufferView":19,
			"componentType":5123,
			"count":1998,
			"type":"SCALAR"
		},
		{
			"bufferView":20,
			"componentType":5126,
			"count":9000,
			"max":[
				15.934538841247559,
				15.352205276489258,
				1.9346809387207031
			],
			"min":[
				-12.035745620727539,
				-31.956892013549805,
				0.7488430142402649
			],
			"type":"VEC3"
		},
		{
			"bufferView":21,
			"componentType":5126,
			"count":9000,
			"type":"VEC2"
		},
		{
			"bufferView":22,
			"componentType":5126,
			"count":9000,
			"type":"VEC3"
		},
		{
			"bufferView":23,
			"componentType":5123,
			"count":21600,
			"type":"SCALAR"
		},
		{
			"bufferView":24,
			"componentType":5126,
			"count":3900,
			"max":[
				17.901208877563477,
				4.427207946777344,
				1.9346829652786255
			],
			"min":[
				-7.498329162597656,
				-29.506908416748047,
				0.7488430142402649
			],
			"type":"VEC3"
		},
		{
			"bufferView":25,
			"componentType":5126,
			"count":3900,
			"type":"VEC2"
		},
		{
			"bufferView":26,
			"componentType":5126,
			"count":3900,
			"type":"VEC3"
		},
		{
			"bufferView":27,
			"componentType":5123,
			"count":9360,
			"type":"SCALAR"
		},
		{
			"bufferView":28,
			"componentType":5126,
			"count":460,
			"max":[
				23.4239559173584,
				21.987327575683594,
				1.2499990463256836
			],
			"min":[
				-20.923954010009766,
				-40.59287643432617,
				0
			],
			"type":"VEC3"
		},
		{
			"bufferView":29,
			"componentType":5126,
			"count":460,
			"type":"VEC2"
		},
		{
			"bufferView":30,
			"componentType":5126,
			"count":460,
			"type":"VEC3"
		},
		{
			"bufferView":31,
			"componentType":5123,
			"count":690,
			"type":"SCALAR"
		},
		{
			"bufferView":32,
			"componentType":5126,
			"count":5460,
			"max":[
				21.708942413330078,
				22.12103843688965,
				14.071221351623535
			],
			"min":[
				-20.19088363647461,
				-10.527239799499512,
				1.6258269548416138
			],
			"type":"VEC3"
		},
		{
			"bufferView":33,
			"componentType":5126,
			"count":5460,
			"type":"VEC2"
		},
		{
			"bufferView":34,
			"componentType":5126,
			"count":5460,
			"type":"VEC3"
		},
		{
			"bufferView":35,
			"componentType":5123,
			"count":12600,
			"type":"SCALAR"
		},
		{
			"bufferView":36,
			"componentType":5126,
			"count":2757,
			"max":[
				12.336830139160156,
				12.083194732666016,
				3.6944448947906494
			],
			"min":[
				-18.906827926635742,
				-12.023354530334473,
				0.1949779987335205
			],
			"type":"VEC3"
		},
		{
			"bufferView":37,
			"componentType":5126,
			"count":2757,
			"type":"VEC2"
		},
		{
			"bufferView":38,
			"componentType":5126,
			"count":2757,
			"type":"VEC3"
		},
		{
			"bufferView":39,
			"componentType":5123,
			"count":3906,
			"type":"SCALAR"
		}
	],
	"bufferViews":[
		{
			"buffer":0,
			"byteLength":1104,
			"byteOffset":0,
			"target":34962
		},
		{
			"buffer":0,
			"byteLength":736,
			"byteOffset":1104,
			"target":34962
		},
		{
			"buffer":0,
			"byteLength":1104,
			"byteOffset":1840,
			"target":34962
		},
		{
			"buffer":0,
			"byteLength":276,
			"byteOffset":2944,
			"target":34963
		},
		{
			"buffer":0,
			"byteLength":8064,
			"byteOffset":3220,
			"target":34962
		},
		{
			"buffer":0,
			"byteLength":5376,
			"byteOffset":11284,
			"target":34962
		},
		{
			"buffer":0,
			"byteLength":8064,
			"byteOffset":16660,
			"target":34962
		},
		{
			"buffer":0,
			"byteLength":2016,
			"byteOffset":24724,
			"target":34963
		},
		{
			"buffer":0,
			"byteLength":31824,
			"byteOffset":26740,
			"target":34962
		},
		{
			"buffer":0,
			"byteLength":21216,
			"byteOffset":58564,
			"target":34962
		},
		{
			"buffer":0,
			"byteLength":31824,
			"byteOffset":79780,
			"target":34962
		},
		{
			"buffer":0,
			"byteLength":10440,
			"byteOffset":111604,
			"target":34963
		},
		{
			"buffer":0,
			"byteLength":12384,
			"byteOffset":122044,
			"target":34962
		},
		{
			"buffer":0,
			"byteLength":8256,
			"byteOffset":134428,
			"target":34962
		},
		{
			"buffer":0,
			"byteLength":12384,
			"byteOffset":142684,
			"target":34962
		},
		{
			"buffer":0,
			"byteLength":3096,
			"byteOffset":155068,
			"target":34963
		},
		{
			"buffer":0,
			"byteLength":15156,
			"byteOffset":158164,
			"target":34962
		},
		{
			"buffer":0,
			"byteLength":10104,
			"byteOffset":173320,
			"target":34962
		},
		{
			"buffer":0,
			"byteLength":15156,
			"byteOffset":183424,
			"target":34962
		},
		{
			"buffer":0,
			"byteLength":3996,
			"byteOffset":198580,
			"target":34963
		},
		{
			"buffer":0,
			"byteLength":108000,
			"byteOffset":202576,
			"target":34962
		},
		{
			"buffer":0,
			"byteLength":72000,
			"byteOffset":310576,
			"target":34962
		},
		{
			"buffer":0,
			"byteLength":108000,
			"byteOffset":382576,
			"target":34962
		},
		{
			"buffer":0,
			"byteLength":43200,
			"byteOffset":490576,
			"target":34963
		},
		{
			"buffer":0,
			"byteLength":46800,
			"byteOffset":533776,
			"target":34962
		},
		{
			"buffer":0,
			"byteLength":31200,
			"byteOffset":580576,
			"target":34962
		},
		{
			"buffer":0,
			"byteLength":46800,
			"byteOffset":611776,
			"target":34962
		},
		{
			"buffer":0,
			"byteLength":18720,
			"byteOffset":658576,
			"target":34963
		},
		{
			"buffer":0,
			"byteLength":5520,
			"byteOffset":677296,
			"target":34962
		},
		{
			"buffer":0,
			"byteLength":3680,
			"byteOffset":682816,
			"target":34962
		},
		{
			"buffer":0,
			"byteLength":5520,
			"byteOffset":686496,
			"target":34962
		},
		{
			"buffer":0,
			"byteLength":1380,
			"byteOffset":692016,
			"target":34963
		},
		{
			"buffer":0,
			"byteLength":65520,
			"byteOffset":693396,
			"target":34962
		},
		{
			"buffer":0,
			"byteLength":43680,
			"byteOffset":758916,
			"target":34962
		},
		{
			"buffer":0,
			"byteLength":65520,
			"byteOffset":802596,
			"target":34962
		},
		{
			"buffer":0,
			"byteLength":25200,
			"byteOffset":868116,
			"target":34963
		},
		{
			"buffer":0,
			"byteLength":33084,
			"byteOffset":893316,
			"target":34962
		},
		{
			"buffer":0,
			"byteLength":22056,
			"byteOffset":926400,
			"target":34962
		},
		{
			"buffer":0,
			"byteLength":33084,
			"byteOffset":948456,
			"target":34962
		},
		{
			"buffer":0,
			"byteLength":7812,
			"byteOffset":981540,
			"target":34963
		}
	],
	"buffers":[
		{
			"byteLength":989352,
			"uri":"data:application/octet-stream;base64,"
		}
	]
}
